HIERARCHY
ROOT Hips
{
	OFFSET 0.088083 -1.307260 70.510933
	CHANNELS 6 Xposition Yposition Zposition Xrotation Yrotation Zrotation
	JOINT Pelvis
	{
		OFFSET 0.000001 -0.000000 0.000000
		CHANNELS 3 Xrotation Yrotation Zrotation
		JOINT LeftUpLeg
		{
			OFFSET 6.829985 1.579747 -2.255630
			CHANNELS 3 Xrotation Yrotation Zrotation
			JOINT LeftLeg
			{
				OFFSET 2.474139 -12.671513 -26.246498
				CHANNELS 3 Xrotation Yrotation Zrotation
				JOINT LeftFoot
				{
					OFFSET -3.195396 13.659576 -26.029882
					CHANNELS 3 Xrotation Yrotation Zrotation
					JOINT LeftToeBase
					{
						OFFSET 3.820951 -10.843364 -14.495878
						CHANNELS 3 Xrotation Yrotation Zrotation
						End Site
						{
							OFFSET 1.186852 -7.443274 16.896681
						}
					}
				}
			}
			JOINT Left_ShortSleeve
			{
				OFFSET 1.281475 -5.302948 -9.027115
				CHANNELS 3 Xrotation Yrotation Zrotation
				End Site
				{
					OFFSET 0.144164 8.512192 17.985718
				}
			}
		}
		JOINT RightUpLeg
		{
			OFFSET -6.667076 0.207482 -3.120773
			CHANNELS 3 Xrotation Yrotation Zrotation
			JOINT RightLeg
			{
				OFFSET 0.352222 -5.376112 -28.749668
				CHANNELS 3 Xrotation Yrotation Zrotation
				JOINT RightFoot
				{
					OFFSET 2.474884 7.362429 -28.530973
					CHANNELS 3 Xrotation Yrotation Zrotation
					JOINT RightToeBase
					{
						OFFSET -1.703627 -16.323120 -8.682802
						CHANNELS 3 Xrotation Yrotation Zrotation
						End Site
						{
							OFFSET 0.000009 -0.000003 18.567112
						}
					}
				}
			}
			JOINT Right_ShortSleeve
			{
				OFFSET -0.129637 -2.817712 -10.163452
				CHANNELS 3 Xrotation Yrotation Zrotation
				End Site
				{
					OFFSET -2.029899 3.217973 19.531746
				}
			}
		}
	}
	JOINT Spine
	{
		OFFSET -1.018586 1.676488 13.231758
		CHANNELS 3 Xrotation Yrotation Zrotation
		JOINT Spine1
		{
			OFFSET 0.008795 -2.090187 13.690018
			CHANNELS 3 Xrotation Yrotation Zrotation
			JOINT Spine2
			{
				OFFSET 0.163209 -1.207157 16.261505
				CHANNELS 3 Xrotation Yrotation Zrotation
				JOINT Neck
				{
					OFFSET 0.401561 -2.284408 18.563934
					CHANNELS 3 Xrotation Yrotation Zrotation
					JOINT Head
					{
						OFFSET -0.184134 -1.600439 6.548080
						CHANNELS 3 Xrotation Yrotation Zrotation
						JOINT Hat
						{
							OFFSET -1.063919 8.880329 27.625793
							CHANNELS 3 Xrotation Yrotation Zrotation
							End Site
							{
								OFFSET -0.115543 -0.953775 22.008911
							}
						}
						JOINT HairD
						{
							OFFSET -10.911836 0.155918 17.403488
							CHANNELS 3 Xrotation Yrotation Zrotation
							JOINT HairD1
							{
								OFFSET -3.188885 -0.707998 -11.109131
								CHANNELS 3 Xrotation Yrotation Zrotation
								End Site
								{
									OFFSET -0.060727 -0.501328 11.568405
								}
							}
						}
						JOINT HairB
						{
							OFFSET -10.804094 -2.633212 17.283188
							CHANNELS 3 Xrotation Yrotation Zrotation
							JOINT HairB1
							{
								OFFSET -1.353610 -3.083057 -13.109344
								CHANNELS 3 Xrotation Yrotation Zrotation
								End Site
								{
									OFFSET -0.070986 -0.585981 13.521988
								}
							}
						}
						JOINT HairA
						{
							OFFSET 9.670906 -1.848344 17.424667
							CHANNELS 3 Xrotation Yrotation Zrotation
							JOINT HairA1
							{
								OFFSET 1.766429 -2.963466 -13.087784
								CHANNELS 3 Xrotation Yrotation Zrotation
								End Site
								{
									OFFSET -0.070979 -0.586003 13.521988
								}
							}
						}
						JOINT HairC
						{
							OFFSET 9.563163 0.940787 17.544983
							CHANNELS 3 Xrotation Yrotation Zrotation
							JOINT HairC1
							{
								OFFSET 3.386734 -0.455934 -11.063690
								CHANNELS 3 Xrotation Yrotation Zrotation
								End Site
								{
									OFFSET -0.060741 -0.501321 11.568405
								}
							}
						}
					}
				}
				JOINT LeftShoulder
				{
					OFFSET 5.287509 -0.605452 15.283783
					CHANNELS 3 Xrotation Yrotation Zrotation
					JOINT LeftArm
					{
						OFFSET 10.119932 0.438281 1.663971
						CHANNELS 3 Xrotation Yrotation Zrotation
						JOINT LeftForeArm
						{
							OFFSET 5.769896 6.035522 -20.317436
							CHANNELS 3 Xrotation Yrotation Zrotation
							JOINT LeftHand
							{
								OFFSET 2.075884 -8.967725 -32.604652
								CHANNELS 3 Xrotation Yrotation Zrotation
								JOINT LeftHandThumb1
								{
									OFFSET -1.534971 -4.527614 -6.254868
									CHANNELS 3 Xrotation Yrotation Zrotation
									JOINT LeftHandThumb2
									{
										OFFSET -0.671717 -1.821419 -2.589775
										CHANNELS 3 Xrotation Yrotation Zrotation
										JOINT LeftHandThumb3
										{
											OFFSET -0.701468 -0.640023 -3.619240
											CHANNELS 3 Xrotation Yrotation Zrotation
											End Site
											{
												OFFSET 3.468494 -0.214733 1.387093
											}
										}
									}
								}
								JOINT LeftHandIndex1
								{
									OFFSET 1.379814 -6.148568 -13.284706
									CHANNELS 3 Xrotation Yrotation Zrotation
									JOINT LeftHandIndex2
									{
										OFFSET -0.269365 -0.397908 -3.519066
										CHANNELS 3 Xrotation Yrotation Zrotation
										JOINT LeftHandIndex3
										{
											OFFSET -0.977533 -0.249261 -2.712685
											CHANNELS 3 Xrotation Yrotation Zrotation
											End Site
											{
												OFFSET 2.878099 -0.299240 0.057911
											}
										}
									}
								}
								JOINT LeftHandMiddle1
								{
									OFFSET 1.494898 -2.285505 -13.503128
									CHANNELS 3 Xrotation Yrotation Zrotation
									JOINT LeftHandMiddle2
									{
										OFFSET -0.726650 -0.342866 -3.343044
										CHANNELS 3 Xrotation Yrotation Zrotation
										JOINT LeftHandMiddle3
										{
											OFFSET -2.140129 -0.196783 -3.001457
											CHANNELS 3 Xrotation Yrotation Zrotation
											End Site
											{
												OFFSET 3.482914 -0.492515 -1.119976
											}
										}
									}
								}
								JOINT LeftHandRing1
								{
									OFFSET 1.174786 0.693964 -14.236374
									CHANNELS 3 Xrotation Yrotation Zrotation
									JOINT LeftHandRing2
									{
										OFFSET -1.108715 -0.267630 -2.949745
										CHANNELS 3 Xrotation Yrotation Zrotation
										JOINT LeftHandRing3
										{
											OFFSET -2.620853 -0.047235 -2.044563
											CHANNELS 3 Xrotation Yrotation Zrotation
											End Site
											{
												OFFSET 2.634001 -0.508943 -1.963253
											}
										}
									}
								}
								JOINT LeftHandPinky1
								{
									OFFSET 1.118374 3.476546 -13.861919
									CHANNELS 3 Xrotation Yrotation Zrotation
									JOINT LeftHandPinky2
									{
										OFFSET -1.196621 -0.216746 -2.576618
										CHANNELS 3 Xrotation Yrotation Zrotation
										JOINT LeftHandPinky3
										{
											OFFSET -2.443949 0.018904 -1.376595
											CHANNELS 3 Xrotation Yrotation Zrotation
											End Site
											{
												OFFSET 2.056499 -0.429385 -1.858673
											}
										}
									}
								}
							}
							JOINT Left_Sleeve
							{
								OFFSET -0.500530 -2.237722 -6.266205
								CHANNELS 3 Xrotation Yrotation Zrotation
								End Site
								{
									OFFSET 18.688656 -7.197020 3.169579
								}
							}
						}
					}
				}
				JOINT RightShoulder
				{
					OFFSET -5.541689 -0.334113 15.424652
					CHANNELS 3 Xrotation Yrotation Zrotation
					JOINT RightArm
					{
						OFFSET -10.262995 0.205508 -0.051193
						CHANNELS 3 Xrotation Yrotation Zrotation
						JOINT RightForeArm
						{
							OFFSET -2.843313 3.218820 -21.542313
							CHANNELS 3 Xrotation Yrotation Zrotation
							JOINT RightHand
							{
								OFFSET -2.339497 -6.629129 -33.141731
								CHANNELS 3 Xrotation Yrotation Zrotation
								JOINT RightHandThumb1
								{
									OFFSET 1.377195 -3.549215 -6.890938
									CHANNELS 3 Xrotation Yrotation Zrotation
									JOINT RightHandThumb2
									{
										OFFSET 0.800861 -1.265415 -2.869331
										CHANNELS 3 Xrotation Yrotation Zrotation
										JOINT RightHandThumb3
										{
											OFFSET 0.482306 -0.101970 -3.709137
											CHANNELS 3 Xrotation Yrotation Zrotation
											End Site
											{
												OFFSET -3.191469 -1.136417 1.588642
											}
										}
									}
								}
								JOINT RightHandIndex1
								{
									OFFSET -2.252256 -5.163772 -13.581421
									CHANNELS 3 Xrotation Yrotation Zrotation
									JOINT RightHandIndex2
									{
										OFFSET 2.243793 0.635577 -2.678848
										CHANNELS 3 Xrotation Yrotation Zrotation
										JOINT RightHandIndex3
										{
											OFFSET 1.777086 0.489589 2.231289
											CHANNELS 3 Xrotation Yrotation Zrotation
											End Site
											{
												OFFSET 1.437233 0.257027 -2.498943
											}
										}
									}
								}
								JOINT RightHandMiddle1
								{
									OFFSET -3.171257 -1.411780 -13.332001
									CHANNELS 3 Xrotation Yrotation Zrotation
									JOINT RightHandMiddle2
									{
										OFFSET 2.485353 0.701792 -2.269794
										CHANNELS 3 Xrotation Yrotation Zrotation
										JOINT RightHandMiddle3
										{
											OFFSET 2.179361 0.599839 2.918591
											CHANNELS 3 Xrotation Yrotation Zrotation
											End Site
											{
												OFFSET 2.089750 0.414979 -3.014683
											}
										}
									}
								}
								JOINT RightHandRing1
								{
									OFFSET -3.576275 1.617503 -13.752430
									CHANNELS 3 Xrotation Yrotation Zrotation
									JOINT RightHandRing2
									{
										OFFSET 2.406239 0.678625 -1.936840
										CHANNELS 3 Xrotation Yrotation Zrotation
										JOINT RightHandRing3
										{
											OFFSET 1.817883 0.499388 2.738102
											CHANNELS 3 Xrotation Yrotation Zrotation
											End Site
											{
												OFFSET 2.110556 0.447084 -2.529224
											}
										}
									}
								}
								JOINT RightHandPinky1
								{
									OFFSET -4.017622 4.305429 -13.069477
									CHANNELS 3 Xrotation Yrotation Zrotation
									JOINT RightHandPinky2
									{
										OFFSET 1.490210 0.424055 -2.391090
										CHANNELS 3 Xrotation Yrotation Zrotation
										JOINT RightHandPinky3
										{
											OFFSET 2.654058 0.740085 0.525871
											CHANNELS 3 Xrotation Yrotation Zrotation
											End Site
											{
												OFFSET -0.327194 -0.196869 -2.778934
											}
										}
									}
								}
							}
							JOINT Right_Sleeve
							{
								OFFSET 0.330111 -1.956339 -6.370796
								CHANNELS 3 Xrotation Yrotation Zrotation
								End Site
								{
									OFFSET -19.862503 -3.489812 2.100334
								}
							}
						}
					}
				}
				JOINT Bind_Right_JacketString
				{
					OFFSET -3.640290 -9.467010 10.234283
					CHANNELS 3 Xrotation Yrotation Zrotation
					JOINT Bind_Right_JacketString1
					{
						OFFSET -0.441279 -1.438704 -6.548782
						CHANNELS 3 Xrotation Yrotation Zrotation
						End Site
						{
							OFFSET 0.050034 -1.413728 6.568871
						}
					}
				}
				JOINT Bind_Left_JacketString
				{
					OFFSET 2.796753 -9.628301 10.150528
					CHANNELS 3 Xrotation Yrotation Zrotation
					JOINT Bind_Left_JacketString1
					{
						OFFSET 0.233933 -1.881311 -6.446533
						CHANNELS 3 Xrotation Yrotation Zrotation
						End Site
						{
							OFFSET 0.050037 -1.413740 6.568924
						}
					}
				}
				JOINT HairE
				{
					OFFSET 6.359574 7.475266 19.576843
					CHANNELS 3 Xrotation Yrotation Zrotation
					JOINT HairE1
					{
						OFFSET 0.270649 2.757019 -6.745026
						CHANNELS 3 Xrotation Yrotation Zrotation
						End Site
						{
							OFFSET 0.054294 -1.534147 7.128342
						}
					}
				}
				JOINT HairF
				{
					OFFSET -0.417734 7.645080 19.665009
					CHANNELS 3 Xrotation Yrotation Zrotation
					JOINT HairF1
					{
						OFFSET -0.046981 5.043033 -13.324341
						CHANNELS 3 Xrotation Yrotation Zrotation
						End Site
						{
							OFFSET 0.106087 -2.997458 13.927536
						}
					}
				}
				JOINT HairG
				{
					OFFSET -7.637764 7.825987 19.758942
					CHANNELS 3 Xrotation Yrotation Zrotation
					JOINT HairG1
					{
						OFFSET -0.313993 2.176278 -5.750061
						CHANNELS 3 Xrotation Yrotation Zrotation
						End Site
						{
							OFFSET 0.045841 -1.295207 6.018173
						}
					}
				}
			}
		}
	}
	JOINT Pouch
	{
		OFFSET 0.618320 -9.948486 6.133583
		CHANNELS 3 Xrotation Yrotation Zrotation
		End Site
		{
			OFFSET -1.735847 3.500235 21.528931
		}
	}
	JOINT Bag
	{
		OFFSET -13.569186 0.017124 3.794769
		CHANNELS 3 Xrotation Yrotation Zrotation
		End Site
		{
			OFFSET -1.735847 3.500230 21.528923
		}
	}
	JOINT OccupyGuyFacialAnim_Joint
	{
		OFFSET 6.414991 -9.504831 -69.290543
		CHANNELS 3 Xrotation Yrotation Zrotation
		End Site
		{
			OFFSET -1.735845 3.500235 21.528927
		}
	}
}
MOTION
Frames: 4
Frame Time: 0.041667
0.088083 -1.307257 70.510933 0.000001 0.000012 -0.000002 -0.000000 -0.000002 0.000001 0.000007 0.000004 0.000004 0.000005 0.000007 -0.000001 0.000009 0.000002 -0.000006 0.000002 0.000002 0.000002 -0.000003 0.000000 -0.000000 -0.000004 0.000001 0.000004 -0.000002 0.000000 -0.000001 -0.000000 0.000003 -0.000001 -0.000004 0.000002 0.000003 0.000001 0.000002 -0.000002 0.000035 -0.000006 -0.000002 -0.000001 0.000000 -0.000000 -0.000001 -0.000000 -0.000000 -0.000001 -0.000000 -0.000001 -0.000001 0.000000 0.000000 -0.000000 -0.000000 0.000000 0.000001 0.000003 0.000001 0.000003 -0.000000 0.000002 -0.000001 0.000000 0.000002 0.000012 0.000004 0.000015 0.000003 0.000000 0.000006 0.000001 -0.000000 0.000003 -0.000001 0.000000 -0.000002 0.000000 -0.000000 -0.000002 -0.000001 -0.000014 -0.000002 0.000003 0.000000 -0.000003 0.000013 -0.000005 -0.000002 0.000003 0.000000 -0.000001 0.000004 0.000001 0.000008 -0.000001 -0.000003 0.000008 0.000001 -0.000002 0.000001 0.000000 -0.000003 0.000002 0.000001 0.000003 -0.000001 -0.000003 0.000001 -0.000002 0.000000 0.000002 0.000000 -0.000001 0.000001 -0.000000 0.000001 0.000017 -0.000001 0.000000 0.000001 -0.000000 0.000001 0.000001 -0.000000 -0.000001 -0.000001 0.000001 0.000001 0.000000 0.000000 -0.000001 -0.000007 0.000000 0.000001 0.000000 -0.000001 -0.000001 0.000007 -0.000002 0.000000 -0.000000 -0.000000 0.000001 0.000000 -0.000002 -0.000000 -0.000001 0.000002 -0.000001 -0.000002 -0.000003 0.000000 0.000004 0.000013 0.000002 0.000000 0.000004 -0.000004 0.000006 -0.000012 0.000000 0.000000 -0.000002 -0.000005 0.000006 -0.000000 -0.000003 0.000006 0.000003 -0.000003 0.000006 -0.000003 -0.000000 0.000004 -0.000000 -0.000002 0.000013 0.000001 0.000002 -0.000006 -0.000000 -0.000001 0.000003 -0.000003 0.000000 -0.000000 0.000001 0.000003 -0.000012 -0.000002 0.000001 -0.000003 0.000006 0.000002 -0.000000 -0.000003 0.000001 -0.000020 0.000001 -0.000000 -0.000000 -0.000000 -0.000012 0.000001 -0.000000 0.000000 0.000000 0.000002 0.000003 0.000000 -0.000003 0.000003 -0.000002 0.000003 -0.000003 0.000001 -0.000002 -0.000010 0.000000 0.000000 0.000000 0.000000 -0.000000 0.000000 0.000001 -0.000005 -0.000001 0.000001 -0.000002 0.000001 0.000000 -0.000003 0.000004 0.000002 0.000001 -0.000011 0.000004 0.000014 
0.177964 -2.310795 70.540627 0.160710 -0.175268 -0.635457 -0.000013 -0.000006 0.000005 -0.916987 1.436328 -0.448839 -4.257622 -0.634927 -0.383263 0.602787 -1.092061 -0.738727 -0.000000 0.000004 -0.000007 -0.000001 -0.000000 0.000002 0.991404 0.323055 -0.141674 -0.401238 -0.011956 -0.033714 -0.752365 -0.140847 0.800161 0.000001 0.000001 -0.000000 0.000004 0.000002 0.000002 -0.107946 0.227637 0.190122 0.035141 0.047702 0.087161 0.036676 0.047241 0.087385 -0.079116 0.010238 0.014982 -0.220977 0.017867 0.105288 0.000001 -0.000000 -0.000000 0.000002 0.000005 0.000001 0.000000 -0.000002 0.000002 -0.000001 -0.000002 0.000003 0.000013 0.000000 0.000000 0.000003 0.000002 0.000006 -0.000001 0.000001 0.000000 -0.000000 -0.000007 -0.000004 0.000002 -0.000000 0.000001 -0.046151 0.027981 -0.356355 0.608709 0.168020 1.863994 1.751509 -0.669183 0.306981 0.712922 0.097443 -3.262952 -0.000004 0.000002 0.000002 0.000001 0.000001 -0.000005 0.000000 0.000003 -0.000002 -0.000001 0.000001 -0.000001 0.000001 0.000009 -0.000001 -0.000000 -0.000007 -0.000003 -0.000002 -0.000004 0.000000 -0.000001 -0.000003 -0.000000 0.000002 0.000022 0.000001 -0.000004 -0.000009 -0.000001 0.000002 0.000008 -0.000000 -0.000003 -0.000001 0.000001 -0.000003 0.000000 -0.000001 0.000000 -0.000006 -0.000001 0.000001 0.000002 0.000000 0.000004 0.000006 -0.000002 0.023925 -0.049818 -0.111884 -0.108232 0.359741 0.121684 -0.309958 -0.054573 0.032631 0.747822 0.442266 0.267886 0.000013 0.000011 0.000006 -0.000004 -0.000006 -0.000001 -0.000003 0.000001 -0.000002 0.000004 -0.000007 0.000005 -0.000001 0.000029 -0.000003 -0.000004 0.000008 -0.000001 0.000002 -0.000006 0.000000 -0.000005 0.000020 0.000002 0.000000 0.000011 -0.000001 0.000005 -0.000005 0.000002 0.000004 -0.000007 -0.000001 0.000003 -0.000000 -0.000002 0.000001 -0.000011 0.000001 -0.000003 -0.000001 0.000010 -0.000000 -0.000001 0.000001 -0.000000 0.000000 -0.000001 -0.000000 -0.000001 -0.000001 -0.000015 0.000000 -0.000000 0.000002 -0.000000 0.000001 0.000000 -0.000001 -0.000004 0.000003 0.000000 0.000001 -0.000004 0.000000 0.000000 -0.000010 0.000000 0.000000 0.000000 -0.000000 -0.000000 -0.000003 0.000001 -0.000003 0.000002 -0.000003 0.000004 -0.000001 -0.000001 -0.000003 0.000002 0.000001 0.000001 -0.000026 0.000005 0.000000 
0.277745 -3.408441 70.542618 0.337077 -0.256140 -1.217614 -0.000004 -0.000006 -0.000001 -2.255525 2.041374 -1.041147 -8.016308 -1.450222 -0.363185 1.507362 0.393886 0.445452 -0.000005 0.000003 -0.000002 0.000001 0.000002 -0.000001 2.069334 0.571443 -0.178129 -0.849063 -0.022180 -0.084339 -1.561288 -0.309639 1.445669 -0.000002 -0.000003 -0.000000 0.000002 0.000002 -0.000002 -0.285173 0.335019 0.367613 0.095878 0.092728 0.162057 0.098413 0.091873 0.162269 -0.157959 0.020515 0.029252 -0.452608 0.013312 0.200212 0.000000 -0.000000 0.000000 0.000003 -0.000003 0.000010 0.000000 0.000002 0.000002 0.000001 0.000000 0.000002 0.000009 0.000003 0.000016 0.000003 0.000001 0.000008 -0.000001 0.000001 0.000002 0.000003 -0.000004 -0.000004 0.000000 -0.000001 0.000002 -0.080657 0.125693 -0.529103 0.934746 0.316422 3.546128 3.667617 -1.388416 0.665272 1.624497 0.437929 -6.973438 0.000006 0.000005 0.000010 -0.000000 -0.000002 0.000004 0.000013 0.000008 0.000005 0.000002 0.000004 -0.000002 -0.000001 0.000011 -0.000002 -0.000003 -0.000009 -0.000002 -0.000001 -0.000010 0.000001 -0.000000 -0.000010 -0.000000 0.000001 0.000018 0.000001 -0.000001 0.000001 -0.000001 0.000001 0.000004 0.000001 -0.000005 -0.000001 0.000001 0.000002 -0.000005 -0.000001 0.000002 -0.000002 0.000000 0.000001 -0.000010 -0.000001 0.000002 0.000006 -0.000001 0.040550 -0.084318 -0.189483 -0.383294 0.721780 0.255593 -0.292460 -0.051480 0.030791 0.908266 0.668393 0.521048 0.000007 0.000004 0.000005 0.000001 0.000002 0.000012 -0.000005 0.000006 0.000003 -0.000001 0.000010 0.000000 -0.000008 0.000005 -0.000004 -0.000001 -0.000001 0.000000 0.000004 -0.000005 0.000002 0.000000 -0.000008 -0.000003 -0.000003 0.000008 0.000001 0.000005 -0.000001 -0.000000 0.000006 -0.000004 -0.000002 0.000002 0.000003 -0.000003 -0.000000 -0.000009 -0.000003 -0.000008 0.000031 0.000007 0.000003 -0.000000 0.000001 -0.000001 0.000001 0.000001 -0.000000 -0.000001 -0.000002 -0.000015 0.000001 -0.000000 0.000000 -0.000001 -0.000002 0.000001 0.000000 -0.000003 -0.000007 0.000003 0.000003 -0.000003 0.000001 -0.000003 -0.000012 0.000000 0.000000 0.000004 -0.000000 0.000000 0.000001 0.000003 -0.000006 -0.000006 -0.000001 0.000009 0.000008 -0.000006 0.000004 -0.000002 0.000000 0.000002 -0.000015 0.000001 0.000000 
0.389698 -4.635495 70.575775 0.527643 -0.361709 -1.864497 -0.000003 -0.000009 -0.000002 -2.997360 2.606817 -1.674415 -13.542901 -2.574780 -0.435965 3.398606 2.541538 1.882938 -0.000000 0.000001 -0.000001 0.000006 0.000001 0.000000 3.506019 0.879755 -0.173426 -1.836092 -0.017162 -0.163817 -2.206016 -0.534619 2.129369 -0.000015 0.000003 0.000002 0.000001 0.000001 -0.000003 -0.474991 0.474386 0.563324 0.161178 0.141590 0.247340 0.164855 0.140264 0.247489 -0.245305 0.030159 0.045006 -0.713663 0.010391 0.312180 0.000001 -0.000000 0.000001 0.000001 0.000002 0.000004 0.000002 -0.000001 0.000004 0.000002 -0.000002 0.000002 0.000013 0.000000 -0.000000 0.000002 0.000001 0.000008 0.000000 0.000000 -0.000001 -0.000000 0.000000 0.000005 -0.000000 0.000001 -0.000005 -0.120294 0.234474 -0.732864 1.318409 0.471861 5.421654 5.796476 -2.170733 1.090230 2.667236 0.737456 -11.126801 0.000002 0.000005 0.000004 -0.000006 0.000001 0.000006 0.000005 0.000002 -0.000006 0.000000 0.000004 -0.000002 -0.000000 0.000004 -0.000002 -0.000001 0.000003 -0.000003 -0.000001 0.000006 -0.000001 -0.000004 -0.000013 -0.000000 0.000003 0.000015 -0.000002 -0.000003 -0.000009 0.000002 0.000003 0.000008 -0.000001 -0.000001 0.000003 -0.000000 -0.000003 -0.000010 0.000000 0.000002 -0.000021 -0.000000 -0.000002 0.000002 -0.000003 0.000000 0.000005 -0.000008 0.060148 -0.125055 -0.280813 -0.953612 1.027190 0.408115 0.483795 0.084767 -0.051505 0.512773 0.734337 0.833692 0.000016 0.000013 0.000009 -0.000004 -0.000010 0.000001 -0.000007 0.000001 -0.000001 -0.000004 0.000022 0.000001 -0.000001 0.000008 -0.000003 -0.000004 0.000010 0.000005 0.000003 -0.000012 0.000003 -0.000005 0.000015 0.000003 -0.000004 0.000023 -0.000000 0.000003 -0.000006 0.000003 0.000000 0.000010 -0.000002 0.000001 0.000006 -0.000003 0.000001 -0.000009 -0.000003 -0.000005 0.000010 0.000005 -0.000006 0.000024 0.000001 0.000003 -0.000022 -0.000001 -0.000000 -0.000000 0.000002 -0.000017 0.000002 0.000003 -0.000001 -0.000001 -0.000003 -0.000002 0.000001 -0.000002 0.000009 -0.000000 -0.000001 -0.000003 0.000001 -0.000005 -0.000009 0.000000 0.000001 -0.000002 0.000000 -0.000001 0.000001 -0.000000 0.000001 0.000000 -0.000002 0.000007 -0.000012 0.000003 0.000012 -0.000002 0.000001 0.000000 -0.000013 0.000002 0.000013 
